<svg x="-11" y="-8" width="1060.000000" height="60.500000">
    <rect x="0.640451" y="0.000000" width="15.050596" height="10.000000" fill="#d38d5f" stroke-width="0"/>
    <rect x="15.755092" y="0.000000" width="16.587678" height="10.000000" fill="#ffdd55" stroke-width="0"/>
    <rect x="32.342769" y="0.000000" width="15.947227" height="10.000000" fill="#ffdd55" stroke-width="0"/>
    <rect x="48.354041" y="0.000000" width="16.011272" height="10.000000" fill="#ffdd55" stroke-width="0"/>
    <rect x="64.365313" y="0.000000" width="15.947227" height="10.000000" fill="#ffdd55" stroke-width="0"/>
    <rect x="80.312540" y="0.000000" width="16.139362" height="10.000000" fill="#ffdd55" stroke-width="0"/>
    <rect x="115.601383" y="0.000000" width="15.306776" height="10.000000" fill="#ffdd55" stroke-width="0"/>
    <rect x="130.908159" y="0.000000" width="14.922505" height="10.000000" fill="#ffdd55" stroke-width="0"/>
    <rect x="145.830665" y="0.000000" width="14.794415" height="10.000000" fill="#ffdd55" stroke-width="0"/>
    <rect x="160.625080" y="0.000000" width="14.666325" height="10.000000" fill="#ffdd55" stroke-width="0"/>
    <rect x="175.291405" y="0.000000" width="15.178686" height="10.000000" fill="#ffdd55" stroke-width="0"/>
    <rect x="202.702703" y="0.000000" width="13.897784" height="10.000000" fill="#ffdd55" stroke-width="0"/>
    <rect x="216.600487" y="0.000000" width="13.769694" height="10.000000" fill="#ffdd55" stroke-width="0"/>
    <rect x="230.370181" y="0.000000" width="13.705649" height="10.000000" fill="#ffdd55" stroke-width="0"/>
    <rect x="244.075829" y="0.000000" width="13.769694" height="10.000000" fill="#ffdd55" stroke-width="0"/>
    <rect x="257.909568" y="0.000000" width="14.218009" height="10.000000" fill="#ffdd55" stroke-width="0"/>
    <rect x="284.360190" y="0.000000" width="13.257333" height="10.000000" fill="#ffdd55" stroke-width="0"/>
    <rect x="297.617523" y="0.000000" width="13.129243" height="10.000000" fill="#ffdd55" stroke-width="0"/>
    <rect x="310.746766" y="0.000000" width="13.065198" height="10.000000" fill="#ffdd55" stroke-width="0"/>
    <rect x="323.811964" y="0.000000" width="13.001153" height="10.000000" fill="#ffdd55" stroke-width="0"/>
    <rect x="337.005252" y="0.000000" width="10.887665" height="10.000000" fill="#d38d5f" stroke-width="0"/>
    <rect x="347.956962" y="0.000000" width="12.168567" height="10.000000" fill="#ffdd55" stroke-width="0"/>
    <rect x="360.125528" y="0.000000" width="12.168567" height="10.000000" fill="#ffdd55" stroke-width="0"/>
    <rect x="372.294095" y="0.000000" width="12.040476" height="10.000000" fill="#ffdd55" stroke-width="0"/>
    <rect x="384.334572" y="0.000000" width="12.360702" height="10.000000" fill="#ffdd55" stroke-width="0"/>
    <rect x="407.006533" y="0.000000" width="11.400026" height="10.000000" fill="#ffdd55" stroke-width="0"/>
    <rect x="418.406558" y="0.000000" width="11.271935" height="10.000000" fill="#ffdd55" stroke-width="0"/>
    <rect x="429.678494" y="0.000000" width="11.335981" height="10.000000" fill="#ffdd55" stroke-width="0"/>
    <rect x="441.014474" y="0.000000" width="11.400026" height="10.000000" fill="#ffdd55" stroke-width="0"/>
    <rect x="462.021263" y="0.000000" width="10.695530" height="10.000000" fill="#ffdd55" stroke-width="0"/>
    <rect x="472.716793" y="0.000000" width="10.695530" height="10.000000" fill="#ffdd55" stroke-width="0"/>
    <rect x="483.412322" y="0.000000" width="10.567439" height="10.000000" fill="#ffdd55" stroke-width="0"/>
    <rect x="493.979762" y="0.000000" width="10.695530" height="10.000000" fill="#ffdd55" stroke-width="0"/>
    <rect x="513.961829" y="0.000000" width="10.311259" height="10.000000" fill="#ffdd55" stroke-width="0"/>
    <rect x="524.273088" y="0.000000" width="9.991034" height="10.000000" fill="#ffdd55" stroke-width="0"/>
    <rect x="534.264122" y="0.000000" width="9.991034" height="10.000000" fill="#ffdd55" stroke-width="0"/>
    <rect x="570.129371" y="0.000000" width="10.183169" height="10.000000" fill="#ffdd55" stroke-width="0"/>
    <rect x="580.312540" y="0.000000" width="9.222493" height="10.000000" fill="#ffdd55" stroke-width="0"/>
    <rect x="589.535033" y="0.000000" width="9.222493" height="10.000000" fill="#ffdd55" stroke-width="0"/>
    <rect x="606.442936" y="0.000000" width="8.453952" height="10.000000" fill="#ffdd55" stroke-width="0"/>
    <rect x="614.896887" y="0.000000" width="8.325861" height="10.000000" fill="#ffdd55" stroke-width="0"/>
    <rect x="623.286794" y="0.000000" width="8.389906" height="10.000000" fill="#ffdd55" stroke-width="0"/>
    <rect x="638.721660" y="0.000000" width="7.749456" height="10.000000" fill="#ffdd55" stroke-width="0"/>
    <rect x="646.471116" y="0.000000" width="7.685411" height="10.000000" fill="#ffdd55" stroke-width="0"/>
    <rect x="654.156526" y="0.000000" width="7.685411" height="10.000000" fill="#ffdd55" stroke-width="0"/>
    <rect x="668.374536" y="0.000000" width="6.980915" height="10.000000" fill="#ffdd55" stroke-width="0"/>
    <rect x="675.355450" y="0.000000" width="6.852824" height="10.000000" fill="#ffdd55" stroke-width="0"/>
    <rect x="688.100423" y="0.000000" width="6.084283" height="10.000000" fill="#ffdd55" stroke-width="0"/>
    <rect x="694.184706" y="0.000000" width="6.084283" height="10.000000" fill="#ffdd55" stroke-width="0"/>
    <rect x="705.520687" y="0.000000" width="5.379787" height="10.000000" fill="#ffdd55" stroke-width="0"/>
    <rect x="710.900474" y="0.000000" width="5.443832" height="10.000000" fill="#ffdd55" stroke-width="0"/>
    <rect x="721.083643" y="0.000000" width="4.611246" height="10.000000" fill="#ffdd55" stroke-width="0"/>
    <rect x="725.694889" y="0.000000" width="4.739336" height="10.000000" fill="#ffdd55" stroke-width="0"/>
    <rect x="734.469066" y="0.000000" width="3.970795" height="10.000000" fill="#ffdd55" stroke-width="0"/>
    <rect x="742.026387" y="0.000000" width="3.458435" height="10.000000" fill="#ffdd55" stroke-width="0"/>
    <rect x="748.302805" y="0.000000" width="2.817984" height="10.000000" fill="#ffdd55" stroke-width="0"/>
    <rect x="753.298322" y="0.000000" width="1.921353" height="10.000000" fill="#ffdd55" stroke-width="0"/>
    <rect x="756.820802" y="0.000000" width="243.179198" height="10.000000" fill="#8dd35f" stroke-width="0"/>
    <rect x="15.755092" y="10.000000" width="20.366338" height="10.000000" fill="#ffdd55" stroke-width="0"/>
    <rect x="36.121429" y="10.000000" width="16.523633" height="10.000000" fill="#ffdd55" stroke-width="0"/>
    <rect x="52.645062" y="10.000000" width="16.459588" height="10.000000" fill="#ffdd55" stroke-width="0"/>
    <rect x="69.104650" y="10.000000" width="16.587678" height="10.000000" fill="#ffdd55" stroke-width="0"/>
    <rect x="85.692327" y="10.000000" width="16.267452" height="10.000000" fill="#ffdd55" stroke-width="0"/>
    <rect x="102.215960" y="10.000000" width="13.321378" height="10.000000" fill="#d38d5f" stroke-width="0"/>
    <rect x="115.665428" y="10.000000" width="15.306776" height="10.000000" fill="#ffdd55" stroke-width="0"/>
    <rect x="130.972204" y="10.000000" width="14.922505" height="10.000000" fill="#ffdd55" stroke-width="0"/>
    <rect x="145.894710" y="10.000000" width="14.730370" height="10.000000" fill="#ffdd55" stroke-width="0"/>
    <rect x="160.625080" y="10.000000" width="14.602280" height="10.000000" fill="#ffdd55" stroke-width="0"/>
    <rect x="175.227360" y="10.000000" width="15.114641" height="10.000000" fill="#ffdd55" stroke-width="0"/>
    <rect x="190.470091" y="10.000000" width="12.232612" height="10.000000" fill="#d38d5f" stroke-width="0"/>
    <rect x="202.766748" y="10.000000" width="13.833739" height="10.000000" fill="#ffdd55" stroke-width="0"/>
    <rect x="216.600487" y="10.000000" width="13.833739" height="10.000000" fill="#ffdd55" stroke-width="0"/>
    <rect x="230.434226" y="10.000000" width="13.641604" height="10.000000" fill="#ffdd55" stroke-width="0"/>
    <rect x="244.139874" y="10.000000" width="13.705649" height="10.000000" fill="#ffdd55" stroke-width="0"/>
    <rect x="284.360190" y="10.000000" width="13.257333" height="10.000000" fill="#ffdd55" stroke-width="0"/>
    <rect x="297.617523" y="10.000000" width="13.129243" height="10.000000" fill="#ffdd55" stroke-width="0"/>
    <rect x="310.746766" y="10.000000" width="13.065198" height="10.000000" fill="#ffdd55" stroke-width="0"/>
    <rect x="323.811964" y="10.000000" width="13.065198" height="10.000000" fill="#ffdd55" stroke-width="0"/>
    <rect x="347.956962" y="10.000000" width="12.168567" height="10.000000" fill="#ffdd55" stroke-width="0"/>
    <rect x="360.125528" y="10.000000" width="12.104522" height="10.000000" fill="#ffdd55" stroke-width="0"/>
    <rect x="372.230050" y="10.000000" width="12.104522" height="10.000000" fill="#ffdd55" stroke-width="0"/>
    <rect x="384.334572" y="10.000000" width="12.360702" height="10.000000" fill="#ffdd55" stroke-width="0"/>
    <rect x="396.759319" y="10.000000" width="10.247214" height="10.000000" fill="#d38d5f" stroke-width="0"/>
    <rect x="407.070578" y="10.000000" width="11.271935" height="10.000000" fill="#ffdd55" stroke-width="0"/>
    <rect x="418.342513" y="10.000000" width="11.271935" height="10.000000" fill="#ffdd55" stroke-width="0"/>
    <rect x="429.678494" y="10.000000" width="11.271935" height="10.000000" fill="#ffdd55" stroke-width="0"/>
    <rect x="440.950429" y="10.000000" width="11.400026" height="10.000000" fill="#ffdd55" stroke-width="0"/>
    <rect x="452.414500" y="10.000000" width="9.606763" height="10.000000" fill="#d38d5f" stroke-width="0"/>
    <rect x="462.085308" y="10.000000" width="10.631485" height="10.000000" fill="#ffdd55" stroke-width="0"/>
    <rect x="472.716793" y="10.000000" width="10.631485" height="10.000000" fill="#ffdd55" stroke-width="0"/>
    <rect x="483.348277" y="10.000000" width="10.887665" height="10.000000" fill="#ffdd55" stroke-width="0"/>
    <rect x="513.961829" y="10.000000" width="10.375304" height="10.000000" fill="#ffdd55" stroke-width="0"/>
    <rect x="524.337133" y="10.000000" width="9.991034" height="10.000000" fill="#ffdd55" stroke-width="0"/>
    <rect x="534.328167" y="10.000000" width="9.991034" height="10.000000" fill="#ffdd55" stroke-width="0"/>
    <rect x="570.129371" y="10.000000" width="9.286538" height="10.000000" fill="#ffdd55" stroke-width="0"/>
    <rect x="579.415909" y="10.000000" width="9.158448" height="10.000000" fill="#ffdd55" stroke-width="0"/>
    <rect x="588.574356" y="10.000000" width="9.286538" height="10.000000" fill="#ffdd55" stroke-width="0"/>
    <rect x="598.757525" y="10.000000" width="7.685411" height="10.000000" fill="#d38d5f" stroke-width="0"/>
    <rect x="606.506981" y="10.000000" width="8.325861" height="10.000000" fill="#ffdd55" stroke-width="0"/>
    <rect x="614.832842" y="10.000000" width="8.389906" height="10.000000" fill="#ffdd55" stroke-width="0"/>
    <rect x="623.222749" y="10.000000" width="8.389906" height="10.000000" fill="#ffdd55" stroke-width="0"/>
    <rect x="631.676700" y="10.000000" width="7.044960" height="10.000000" fill="#d38d5f" stroke-width="0"/>
    <rect x="638.785705" y="10.000000" width="7.621365" height="10.000000" fill="#ffdd55" stroke-width="0"/>
    <rect x="646.407071" y="10.000000" width="7.685411" height="10.000000" fill="#ffdd55" stroke-width="0"/>
    <rect x="668.374536" y="10.000000" width="6.980915" height="10.000000" fill="#ffdd55" stroke-width="0"/>
    <rect x="675.355450" y="10.000000" width="6.852824" height="10.000000" fill="#ffdd55" stroke-width="0"/>
    <rect x="688.100423" y="10.000000" width="6.084283" height="10.000000" fill="#ffdd55" stroke-width="0"/>
    <rect x="694.184706" y="10.000000" width="6.084283" height="10.000000" fill="#ffdd55" stroke-width="0"/>
    <rect x="700.333034" y="10.000000" width="5.187652" height="10.000000" fill="#d38d5f" stroke-width="0"/>
    <rect x="705.584732" y="10.000000" width="5.315742" height="10.000000" fill="#ffdd55" stroke-width="0"/>
    <rect x="710.964519" y="10.000000" width="5.379787" height="10.000000" fill="#ffdd55" stroke-width="0"/>
    <rect x="721.083643" y="10.000000" width="4.611246" height="10.000000" fill="#ffdd55" stroke-width="0"/>
    <rect x="734.469066" y="10.000000" width="3.970795" height="10.000000" fill="#ffdd55" stroke-width="0"/>
    <rect x="742.026387" y="10.000000" width="3.458435" height="10.000000" fill="#ffdd55" stroke-width="0"/>
    <rect x="748.302805" y="10.000000" width="2.817984" height="10.000000" fill="#ffdd55" stroke-width="0"/>
    <rect x="15.755092" y="20.000000" width="20.366338" height="10.000000" fill="#ffdd55" stroke-width="0"/>
    <rect x="36.121429" y="20.000000" width="16.587678" height="10.000000" fill="#ffdd55" stroke-width="0"/>
    <rect x="52.709107" y="20.000000" width="16.395542" height="10.000000" fill="#ffdd55" stroke-width="0"/>
    <rect x="69.104650" y="20.000000" width="16.523633" height="10.000000" fill="#ffdd55" stroke-width="0"/>
    <rect x="85.692327" y="20.000000" width="16.523633" height="10.000000" fill="#ffdd55" stroke-width="0"/>
    <rect x="115.601383" y="20.000000" width="15.370821" height="10.000000" fill="#ffdd55" stroke-width="0"/>
    <rect x="130.972204" y="20.000000" width="14.986551" height="10.000000" fill="#ffdd55" stroke-width="0"/>
    <rect x="145.958755" y="20.000000" width="14.794415" height="10.000000" fill="#ffdd55" stroke-width="0"/>
    <rect x="160.753170" y="20.000000" width="14.666325" height="10.000000" fill="#ffdd55" stroke-width="0"/>
    <rect x="202.702703" y="20.000000" width="13.897784" height="10.000000" fill="#ffdd55" stroke-width="0"/>
    <rect x="216.600487" y="20.000000" width="13.897784" height="10.000000" fill="#ffdd55" stroke-width="0"/>
    <rect x="230.498271" y="20.000000" width="13.705649" height="10.000000" fill="#ffdd55" stroke-width="0"/>
    <rect x="244.203920" y="20.000000" width="13.769694" height="10.000000" fill="#ffdd55" stroke-width="0"/>
    <rect x="284.360190" y="20.000000" width="13.257333" height="10.000000" fill="#ffdd55" stroke-width="0"/>
    <rect x="297.617523" y="20.000000" width="13.129243" height="10.000000" fill="#ffdd55" stroke-width="0"/>
    <rect x="310.746766" y="20.000000" width="13.065198" height="10.000000" fill="#ffdd55" stroke-width="0"/>
    <rect x="323.876009" y="20.000000" width="13.065198" height="10.000000" fill="#ffdd55" stroke-width="0"/>
    <rect x="347.956962" y="20.000000" width="12.168567" height="10.000000" fill="#ffdd55" stroke-width="0"/>
    <rect x="360.125528" y="20.000000" width="12.104522" height="10.000000" fill="#ffdd55" stroke-width="0"/>
    <rect x="372.230050" y="20.000000" width="12.168567" height="10.000000" fill="#ffdd55" stroke-width="0"/>
    <rect x="384.398617" y="20.000000" width="12.360702" height="10.000000" fill="#ffdd55" stroke-width="0"/>
    <rect x="407.006533" y="20.000000" width="11.400026" height="10.000000" fill="#ffdd55" stroke-width="0"/>
    <rect x="418.406558" y="20.000000" width="11.271935" height="10.000000" fill="#ffdd55" stroke-width="0"/>
    <rect x="429.678494" y="20.000000" width="11.271935" height="10.000000" fill="#ffdd55" stroke-width="0"/>
    <rect x="462.021263" y="20.000000" width="10.695530" height="10.000000" fill="#ffdd55" stroke-width="0"/>
    <rect x="472.716793" y="20.000000" width="10.631485" height="10.000000" fill="#ffdd55" stroke-width="0"/>
    <rect x="483.348277" y="20.000000" width="10.631485" height="10.000000" fill="#ffdd55" stroke-width="0"/>
    <rect x="504.739336" y="20.000000" width="9.222493" height="10.000000" fill="#d38d5f" stroke-width="0"/>
    <rect x="514.025874" y="20.000000" width="27.347252" height="10.000000" fill="#ffdd55" stroke-width="0"/>
    <rect x="541.373127" y="20.000000" width="10.119124" height="10.000000" fill="#ffdd55" stroke-width="0"/>
    <rect x="551.492251" y="20.000000" width="10.055079" height="10.000000" fill="#ffdd55" stroke-width="0"/>
    <rect x="570.129371" y="20.000000" width="9.286538" height="10.000000" fill="#ffdd55" stroke-width="0"/>
    <rect x="579.415909" y="20.000000" width="9.158448" height="10.000000" fill="#ffdd55" stroke-width="0"/>
    <rect x="588.574356" y="20.000000" width="9.286538" height="10.000000" fill="#ffdd55" stroke-width="0"/>
    <rect x="606.442936" y="20.000000" width="8.453952" height="10.000000" fill="#ffdd55" stroke-width="0"/>
    <rect x="614.896887" y="20.000000" width="8.389906" height="10.000000" fill="#ffdd55" stroke-width="0"/>
    <rect x="638.721660" y="20.000000" width="7.749456" height="10.000000" fill="#ffdd55" stroke-width="0"/>
    <rect x="646.471116" y="20.000000" width="7.685411" height="10.000000" fill="#ffdd55" stroke-width="0"/>
    <rect x="661.841937" y="20.000000" width="6.532599" height="10.000000" fill="#d38d5f" stroke-width="0"/>
    <rect x="668.438581" y="20.000000" width="6.852824" height="10.000000" fill="#ffdd55" stroke-width="0"/>
    <rect x="675.291405" y="20.000000" width="6.852824" height="10.000000" fill="#ffdd55" stroke-width="0"/>
    <rect x="682.208275" y="20.000000" width="5.892148" height="10.000000" fill="#d38d5f" stroke-width="0"/>
    <rect x="688.164468" y="20.000000" width="6.084283" height="10.000000" fill="#ffdd55" stroke-width="0"/>
    <rect x="694.248751" y="20.000000" width="6.084283" height="10.000000" fill="#ffdd55" stroke-width="0"/>
    <rect x="705.520687" y="20.000000" width="5.379787" height="10.000000" fill="#ffdd55" stroke-width="0"/>
    <rect x="721.083643" y="20.000000" width="4.611246" height="10.000000" fill="#ffdd55" stroke-width="0"/>
    <rect x="730.434226" y="20.000000" width="4.034841" height="10.000000" fill="#d38d5f" stroke-width="0"/>
    <rect x="734.533111" y="20.000000" width="3.906750" height="10.000000" fill="#ffdd55" stroke-width="0"/>
    <rect x="742.026387" y="20.000000" width="3.394390" height="10.000000" fill="#ffdd55" stroke-width="0"/>
    <rect x="15.755092" y="30.000000" width="20.366338" height="10.000000" fill="#ffdd55" stroke-width="0"/>
    <rect x="36.121429" y="30.000000" width="16.395542" height="10.000000" fill="#ffdd55" stroke-width="0"/>
    <rect x="52.516972" y="30.000000" width="16.459588" height="10.000000" fill="#ffdd55" stroke-width="0"/>
    <rect x="68.976559" y="30.000000" width="16.587678" height="10.000000" fill="#ffdd55" stroke-width="0"/>
    <rect x="115.601383" y="30.000000" width="15.370821" height="10.000000" fill="#ffdd55" stroke-width="0"/>
    <rect x="130.972204" y="30.000000" width="15.242731" height="10.000000" fill="#ffdd55" stroke-width="0"/>
    <rect x="146.214935" y="30.000000" width="14.858460" height="10.000000" fill="#ffdd55" stroke-width="0"/>
    <rect x="161.073396" y="30.000000" width="14.730370" height="10.000000" fill="#ffdd55" stroke-width="0"/>
    <rect x="202.702703" y="30.000000" width="13.961829" height="10.000000" fill="#ffdd55" stroke-width="0"/>
    <rect x="216.664532" y="30.000000" width="13.833739" height="10.000000" fill="#ffdd55" stroke-width="0"/>
    <rect x="230.498271" y="30.000000" width="13.769694" height="10.000000" fill="#ffdd55" stroke-width="0"/>
    <rect x="244.267965" y="30.000000" width="13.705649" height="10.000000" fill="#ffdd55" stroke-width="0"/>
    <rect x="272.191623" y="30.000000" width="12.168567" height="10.000000" fill="#d38d5f" stroke-width="0"/>
    <rect x="284.424235" y="30.000000" width="13.129243" height="10.000000" fill="#ffdd55" stroke-width="0"/>
    <rect x="297.553478" y="30.000000" width="13.193288" height="10.000000" fill="#ffdd55" stroke-width="0"/>
    <rect x="310.746766" y="30.000000" width="13.129243" height="10.000000" fill="#ffdd55" stroke-width="0"/>
    <rect x="323.876009" y="30.000000" width="13.001153" height="10.000000" fill="#ffdd55" stroke-width="0"/>
    <rect x="347.956962" y="30.000000" width="12.168567" height="10.000000" fill="#ffdd55" stroke-width="0"/>
    <rect x="360.125528" y="30.000000" width="12.104522" height="10.000000" fill="#ffdd55" stroke-width="0"/>
    <rect x="372.230050" y="30.000000" width="12.104522" height="10.000000" fill="#ffdd55" stroke-width="0"/>
    <rect x="407.006533" y="30.000000" width="11.400026" height="10.000000" fill="#ffdd55" stroke-width="0"/>
    <rect x="418.406558" y="30.000000" width="11.271935" height="10.000000" fill="#ffdd55" stroke-width="0"/>
    <rect x="429.678494" y="30.000000" width="11.271935" height="10.000000" fill="#ffdd55" stroke-width="0"/>
    <rect x="462.085308" y="30.000000" width="10.759575" height="10.000000" fill="#ffdd55" stroke-width="0"/>
    <rect x="472.844883" y="30.000000" width="10.631485" height="10.000000" fill="#ffdd55" stroke-width="0"/>
    <rect x="483.476367" y="30.000000" width="10.631485" height="10.000000" fill="#ffdd55" stroke-width="0"/>
    <rect x="513.961829" y="30.000000" width="10.439349" height="10.000000" fill="#ffdd55" stroke-width="0"/>
    <rect x="524.401178" y="30.000000" width="10.055079" height="10.000000" fill="#ffdd55" stroke-width="0"/>
    <rect x="534.456257" y="30.000000" width="10.247214" height="10.000000" fill="#ffdd55" stroke-width="0"/>
    <rect x="561.547329" y="30.000000" width="8.582042" height="10.000000" fill="#d38d5f" stroke-width="0"/>
    <rect x="570.193416" y="30.000000" width="9.222493" height="10.000000" fill="#ffdd55" stroke-width="0"/>
    <rect x="579.415909" y="30.000000" width="9.158448" height="10.000000" fill="#ffdd55" stroke-width="0"/>
    <rect x="606.442936" y="30.000000" width="8.453952" height="10.000000" fill="#ffdd55" stroke-width="0"/>
    <rect x="614.896887" y="30.000000" width="8.389906" height="10.000000" fill="#ffdd55" stroke-width="0"/>
    <rect x="638.721660" y="30.000000" width="7.749456" height="10.000000" fill="#ffdd55" stroke-width="0"/>
    <rect x="646.471116" y="30.000000" width="7.685411" height="10.000000" fill="#ffdd55" stroke-width="0"/>
    <rect x="668.374536" y="30.000000" width="6.980915" height="10.000000" fill="#ffdd55" stroke-width="0"/>
    <rect x="675.355450" y="30.000000" width="6.852824" height="10.000000" fill="#ffdd55" stroke-width="0"/>
    <rect x="688.100423" y="30.000000" width="6.084283" height="10.000000" fill="#ffdd55" stroke-width="0"/>
    <rect x="705.520687" y="30.000000" width="5.379787" height="10.000000" fill="#ffdd55" stroke-width="0"/>
    <rect x="716.344306" y="30.000000" width="4.675291" height="10.000000" fill="#d38d5f" stroke-width="0"/>
    <rect x="721.083643" y="30.000000" width="4.675291" height="10.000000" fill="#ffdd55" stroke-width="0"/>
    <rect x="734.469066" y="30.000000" width="3.970795" height="10.000000" fill="#ffdd55" stroke-width="0"/>
    <rect x="738.503907" y="30.000000" width="3.522480" height="10.000000" fill="#d38d5f" stroke-width="0"/>
    <rect x="745.484821" y="30.000000" width="2.817984" height="10.000000" fill="#d38d5f" stroke-width="0"/>
    <rect x="751.184834" y="30.000000" width="2.113488" height="10.000000" fill="#d38d5f" stroke-width="0"/>
    <rect x="755.219675" y="30.000000" width="1.473037" height="10.000000" fill="#d38d5f" stroke-width="0"/>
<line x1="0" y1="50.500000" x2="1020.000000" y2="50.500000"                      style="stroke:rgb(0,0,0);stroke-width:1"/>
<text x="1010.000000" y="8.000000" style="font-size:6pt">Thread 0</text>
<text x="1010.000000" y="18.000000" style="font-size:6pt">Thread 1</text>
<text x="1010.000000" y="28.000000" style="font-size:6pt">Thread 2</text>
<text x="1010.000000" y="38.000000" style="font-size:6pt">Thread 3</text>
<text x="0" y="59.500000" style="font-size:6pt">Time (usec.)</text>
<line x1="100.000000" y1="49.500000" x2="100.000000" y2="51.500000"                      style="stroke:rgb(0,0,0);stroke-width:0.5"/>
<text x="100.000000" y="57.500000" style="font-size:6pt"> 1561 </text>
<line x1="200.000000" y1="49.500000" x2="200.000000" y2="51.500000"                      style="stroke:rgb(0,0,0);stroke-width:0.5"/>
<text x="200.000000" y="57.500000" style="font-size:6pt"> 3123 </text>
<line x1="300.000000" y1="49.500000" x2="300.000000" y2="51.500000"                      style="stroke:rgb(0,0,0);stroke-width:0.5"/>
<text x="300.000000" y="57.500000" style="font-size:6pt"> 4684 </text>
<line x1="400.000000" y1="49.500000" x2="400.000000" y2="51.500000"                      style="stroke:rgb(0,0,0);stroke-width:0.5"/>
<text x="400.000000" y="57.500000" style="font-size:6pt"> 6246 </text>
<line x1="500.000000" y1="49.500000" x2="500.000000" y2="51.500000"                      style="stroke:rgb(0,0,0);stroke-width:0.5"/>
<text x="500.000000" y="57.500000" style="font-size:6pt"> 7807 </text>
<line x1="600.000000" y1="49.500000" x2="600.000000" y2="51.500000"                      style="stroke:rgb(0,0,0);stroke-width:0.5"/>
<text x="600.000000" y="57.500000" style="font-size:6pt"> 9368 </text>
<line x1="700.000000" y1="49.500000" x2="700.000000" y2="51.500000"                      style="stroke:rgb(0,0,0);stroke-width:0.5"/>
<text x="700.000000" y="57.500000" style="font-size:6pt"> 10930 </text>
<line x1="800.000000" y1="49.500000" x2="800.000000" y2="51.500000"                      style="stroke:rgb(0,0,0);stroke-width:0.5"/>
<text x="800.000000" y="57.500000" style="font-size:6pt"> 12491 </text>
<line x1="900.000000" y1="49.500000" x2="900.000000" y2="51.500000"                      style="stroke:rgb(0,0,0);stroke-width:0.5"/>
<text x="900.000000" y="57.500000" style="font-size:6pt"> 14053 </text>
<line x1="1000.000000" y1="49.500000" x2="1000.000000" y2="51.500000"                      style="stroke:rgb(0,0,0);stroke-width:0.5"/>
<text x="1000.000000" y="57.500000" style="font-size:6pt"> 15614 </text>
</svg>
