<svg x="-11" y="-8" width="1060.000000" height="29.000000">
    <rect x="0.000000" y="0.000000" width="5.761441" height="10.000000" fill="#d38d5f" stroke-width="0"/>
    <rect x="5.761441" y="0.000000" width="6.214305" height="10.000000" fill="#ffdd55" stroke-width="0"/>
    <rect x="11.975747" y="0.000000" width="6.189146" height="10.000000" fill="#ffdd55" stroke-width="0"/>
    <rect x="18.164893" y="0.000000" width="6.264624" height="10.000000" fill="#ffdd55" stroke-width="0"/>
    <rect x="24.429517" y="0.000000" width="6.239465" height="10.000000" fill="#ffdd55" stroke-width="0"/>
    <rect x="30.668981" y="0.000000" width="6.365260" height="10.000000" fill="#ffdd55" stroke-width="0"/>
    <rect x="37.034242" y="0.000000" width="6.239465" height="10.000000" fill="#ffdd55" stroke-width="0"/>
    <rect x="43.273706" y="0.000000" width="6.214305" height="10.000000" fill="#ffdd55" stroke-width="0"/>
    <rect x="49.513171" y="0.000000" width="6.189146" height="10.000000" fill="#ffdd55" stroke-width="0"/>
    <rect x="55.702317" y="0.000000" width="6.189146" height="10.000000" fill="#ffdd55" stroke-width="0"/>
    <rect x="61.891464" y="0.000000" width="6.239465" height="10.000000" fill="#ffdd55" stroke-width="0"/>
    <rect x="68.130928" y="0.000000" width="6.239465" height="10.000000" fill="#ffdd55" stroke-width="0"/>
    <rect x="74.370393" y="0.000000" width="6.214305" height="10.000000" fill="#ffdd55" stroke-width="0"/>
    <rect x="80.584698" y="0.000000" width="6.189146" height="10.000000" fill="#ffdd55" stroke-width="0"/>
    <rect x="86.799004" y="0.000000" width="6.214305" height="10.000000" fill="#ffdd55" stroke-width="0"/>
    <rect x="93.013309" y="0.000000" width="6.189146" height="10.000000" fill="#ffdd55" stroke-width="0"/>
    <rect x="99.202456" y="0.000000" width="6.214305" height="10.000000" fill="#ffdd55" stroke-width="0"/>
    <rect x="105.416761" y="0.000000" width="6.239465" height="10.000000" fill="#ffdd55" stroke-width="0"/>
    <rect x="111.656226" y="0.000000" width="6.214305" height="10.000000" fill="#ffdd55" stroke-width="0"/>
    <rect x="117.870531" y="0.000000" width="6.239465" height="10.000000" fill="#ffdd55" stroke-width="0"/>
    <rect x="124.109996" y="0.000000" width="5.182781" height="10.000000" fill="#d38d5f" stroke-width="0"/>
    <rect x="129.292777" y="0.000000" width="42.091227" height="10.000000" fill="#ffdd55" stroke-width="0"/>
    <rect x="171.384004" y="0.000000" width="6.491056" height="10.000000" fill="#ffdd55" stroke-width="0"/>
    <rect x="177.875060" y="0.000000" width="30.568345" height="10.000000" fill="#ffdd55" stroke-width="0"/>
    <rect x="208.443405" y="0.000000" width="6.818125" height="10.000000" fill="#ffdd55" stroke-width="0"/>
    <rect x="215.261529" y="0.000000" width="7.296148" height="10.000000" fill="#ffdd55" stroke-width="0"/>
    <rect x="222.557677" y="0.000000" width="6.063351" height="10.000000" fill="#ffdd55" stroke-width="0"/>
    <rect x="228.621028" y="0.000000" width="6.692329" height="10.000000" fill="#ffdd55" stroke-width="0"/>
    <rect x="235.313357" y="0.000000" width="5.811759" height="10.000000" fill="#ffdd55" stroke-width="0"/>
    <rect x="241.125116" y="0.000000" width="7.799331" height="10.000000" fill="#ffdd55" stroke-width="0"/>
    <rect x="248.924447" y="0.000000" width="6.440738" height="10.000000" fill="#ffdd55" stroke-width="0"/>
    <rect x="255.365185" y="0.000000" width="6.340101" height="10.000000" fill="#ffdd55" stroke-width="0"/>
    <rect x="261.705286" y="0.000000" width="6.969079" height="10.000000" fill="#ffdd55" stroke-width="0"/>
    <rect x="268.674365" y="0.000000" width="5.862078" height="10.000000" fill="#ffdd55" stroke-width="0"/>
    <rect x="274.536443" y="0.000000" width="5.937555" height="10.000000" fill="#ffdd55" stroke-width="0"/>
    <rect x="280.473998" y="0.000000" width="5.862078" height="10.000000" fill="#ffdd55" stroke-width="0"/>
    <rect x="286.336076" y="0.000000" width="5.987873" height="10.000000" fill="#ffdd55" stroke-width="0"/>
    <rect x="292.323949" y="0.000000" width="5.887237" height="10.000000" fill="#ffdd55" stroke-width="0"/>
    <rect x="298.211186" y="0.000000" width="5.862078" height="10.000000" fill="#ffdd55" stroke-width="0"/>
    <rect x="304.098423" y="0.000000" width="5.736282" height="10.000000" fill="#d38d5f" stroke-width="0"/>
    <rect x="309.834705" y="0.000000" width="5.585327" height="10.000000" fill="#ffdd55" stroke-width="0"/>
    <rect x="315.420032" y="0.000000" width="5.635645" height="10.000000" fill="#ffdd55" stroke-width="0"/>
    <rect x="321.055677" y="0.000000" width="5.635645" height="10.000000" fill="#ffdd55" stroke-width="0"/>
    <rect x="326.691323" y="0.000000" width="5.585327" height="10.000000" fill="#ffdd55" stroke-width="0"/>
    <rect x="332.276650" y="0.000000" width="5.862078" height="10.000000" fill="#ffdd55" stroke-width="0"/>
    <rect x="338.163887" y="0.000000" width="6.189146" height="10.000000" fill="#ffdd55" stroke-width="0"/>
    <rect x="344.353033" y="0.000000" width="5.610486" height="10.000000" fill="#ffdd55" stroke-width="0"/>
    <rect x="349.963519" y="0.000000" width="5.610486" height="10.000000" fill="#ffdd55" stroke-width="0"/>
    <rect x="355.574006" y="0.000000" width="5.610486" height="10.000000" fill="#ffdd55" stroke-width="0"/>
    <rect x="361.184492" y="0.000000" width="5.610486" height="10.000000" fill="#ffdd55" stroke-width="0"/>
    <rect x="366.794978" y="0.000000" width="5.635645" height="10.000000" fill="#ffdd55" stroke-width="0"/>
    <rect x="372.430624" y="0.000000" width="5.585327" height="10.000000" fill="#ffdd55" stroke-width="0"/>
    <rect x="378.015951" y="0.000000" width="5.685964" height="10.000000" fill="#ffdd55" stroke-width="0"/>
    <rect x="383.701915" y="0.000000" width="5.736282" height="10.000000" fill="#ffdd55" stroke-width="0"/>
    <rect x="389.438197" y="0.000000" width="5.761441" height="10.000000" fill="#ffdd55" stroke-width="0"/>
    <rect x="395.199638" y="0.000000" width="19.146099" height="10.000000" fill="#ffdd55" stroke-width="0"/>
    <rect x="414.345737" y="0.000000" width="6.667170" height="10.000000" fill="#ffdd55" stroke-width="0"/>
    <rect x="421.038066" y="0.000000" width="4.729917" height="10.000000" fill="#d38d5f" stroke-width="0"/>
    <rect x="425.767982" y="0.000000" width="6.918761" height="10.000000" fill="#ffdd55" stroke-width="0"/>
    <rect x="432.686744" y="0.000000" width="6.038192" height="10.000000" fill="#ffdd55" stroke-width="0"/>
    <rect x="438.724935" y="0.000000" width="5.207940" height="10.000000" fill="#ffdd55" stroke-width="0"/>
    <rect x="443.932875" y="0.000000" width="5.182781" height="10.000000" fill="#ffdd55" stroke-width="0"/>
    <rect x="449.115657" y="0.000000" width="5.233099" height="10.000000" fill="#ffdd55" stroke-width="0"/>
    <rect x="454.348756" y="0.000000" width="6.717488" height="10.000000" fill="#ffdd55" stroke-width="0"/>
    <rect x="461.066244" y="0.000000" width="6.868443" height="10.000000" fill="#ffdd55" stroke-width="0"/>
    <rect x="467.934687" y="0.000000" width="5.535009" height="10.000000" fill="#ffdd55" stroke-width="0"/>
    <rect x="473.469696" y="0.000000" width="5.283418" height="10.000000" fill="#ffdd55" stroke-width="0"/>
    <rect x="478.778273" y="0.000000" width="5.207940" height="10.000000" fill="#ffdd55" stroke-width="0"/>
    <rect x="483.986213" y="0.000000" width="5.660805" height="10.000000" fill="#ffdd55" stroke-width="0"/>
    <rect x="489.647017" y="0.000000" width="7.120034" height="10.000000" fill="#ffdd55" stroke-width="0"/>
    <rect x="496.767052" y="0.000000" width="6.541374" height="10.000000" fill="#ffdd55" stroke-width="0"/>
    <rect x="503.308426" y="0.000000" width="5.484691" height="10.000000" fill="#ffdd55" stroke-width="0"/>
    <rect x="508.793116" y="0.000000" width="5.233099" height="10.000000" fill="#ffdd55" stroke-width="0"/>
    <rect x="514.026216" y="0.000000" width="5.258258" height="10.000000" fill="#ffdd55" stroke-width="0"/>
    <rect x="519.284474" y="0.000000" width="4.478325" height="10.000000" fill="#d38d5f" stroke-width="0"/>
    <rect x="523.762800" y="0.000000" width="5.031826" height="10.000000" fill="#ffdd55" stroke-width="0"/>
    <rect x="528.794626" y="0.000000" width="5.006667" height="10.000000" fill="#ffdd55" stroke-width="0"/>
    <rect x="533.801293" y="0.000000" width="5.836919" height="10.000000" fill="#ffdd55" stroke-width="0"/>
    <rect x="539.638212" y="0.000000" width="4.906031" height="10.000000" fill="#ffdd55" stroke-width="0"/>
    <rect x="544.544242" y="0.000000" width="4.880872" height="10.000000" fill="#ffdd55" stroke-width="0"/>
    <rect x="549.425114" y="0.000000" width="4.906031" height="10.000000" fill="#ffdd55" stroke-width="0"/>
    <rect x="554.331144" y="0.000000" width="4.981508" height="10.000000" fill="#ffdd55" stroke-width="0"/>
    <rect x="559.312653" y="0.000000" width="4.956349" height="10.000000" fill="#ffdd55" stroke-width="0"/>
    <rect x="564.269001" y="0.000000" width="5.937555" height="10.000000" fill="#ffdd55" stroke-width="0"/>
    <rect x="570.206556" y="0.000000" width="5.308577" height="10.000000" fill="#ffdd55" stroke-width="0"/>
    <rect x="575.515133" y="0.000000" width="5.031826" height="10.000000" fill="#ffdd55" stroke-width="0"/>
    <rect x="580.546960" y="0.000000" width="4.981508" height="10.000000" fill="#ffdd55" stroke-width="0"/>
    <rect x="585.528468" y="0.000000" width="5.006667" height="10.000000" fill="#ffdd55" stroke-width="0"/>
    <rect x="590.535135" y="0.000000" width="5.031826" height="10.000000" fill="#ffdd55" stroke-width="0"/>
    <rect x="595.566961" y="0.000000" width="5.006667" height="10.000000" fill="#ffdd55" stroke-width="0"/>
    <rect x="600.573628" y="0.000000" width="4.302211" height="10.000000" fill="#d38d5f" stroke-width="0"/>
    <rect x="604.875840" y="0.000000" width="4.654439" height="10.000000" fill="#ffdd55" stroke-width="0"/>
    <rect x="609.530279" y="0.000000" width="4.654439" height="10.000000" fill="#ffdd55" stroke-width="0"/>
    <rect x="614.184718" y="0.000000" width="4.654439" height="10.000000" fill="#ffdd55" stroke-width="0"/>
    <rect x="618.839158" y="0.000000" width="4.629280" height="10.000000" fill="#ffdd55" stroke-width="0"/>
    <rect x="623.468438" y="0.000000" width="4.604121" height="10.000000" fill="#ffdd55" stroke-width="0"/>
    <rect x="628.072559" y="0.000000" width="4.629280" height="10.000000" fill="#ffdd55" stroke-width="0"/>
    <rect x="632.701839" y="0.000000" width="5.384054" height="10.000000" fill="#ffdd55" stroke-width="0"/>
    <rect x="638.085893" y="0.000000" width="4.578962" height="10.000000" fill="#ffdd55" stroke-width="0"/>
    <rect x="642.664855" y="0.000000" width="4.553803" height="10.000000" fill="#ffdd55" stroke-width="0"/>
    <rect x="647.218658" y="0.000000" width="4.528644" height="10.000000" fill="#ffdd55" stroke-width="0"/>
    <rect x="651.747302" y="0.000000" width="4.553803" height="10.000000" fill="#ffdd55" stroke-width="0"/>
    <rect x="656.301104" y="0.000000" width="4.553803" height="10.000000" fill="#ffdd55" stroke-width="0"/>
    <rect x="660.854907" y="0.000000" width="4.553803" height="10.000000" fill="#ffdd55" stroke-width="0"/>
    <rect x="665.408710" y="0.000000" width="4.654439" height="10.000000" fill="#ffdd55" stroke-width="0"/>
    <rect x="670.063149" y="0.000000" width="3.949984" height="10.000000" fill="#d38d5f" stroke-width="0"/>
    <rect x="674.013133" y="0.000000" width="4.277052" height="10.000000" fill="#ffdd55" stroke-width="0"/>
    <rect x="678.290185" y="0.000000" width="4.302211" height="10.000000" fill="#ffdd55" stroke-width="0"/>
    <rect x="682.592397" y="0.000000" width="4.277052" height="10.000000" fill="#ffdd55" stroke-width="0"/>
    <rect x="686.869449" y="0.000000" width="4.604121" height="10.000000" fill="#ffdd55" stroke-width="0"/>
    <rect x="691.473570" y="0.000000" width="4.251893" height="10.000000" fill="#ffdd55" stroke-width="0"/>
    <rect x="695.725464" y="0.000000" width="4.277052" height="10.000000" fill="#ffdd55" stroke-width="0"/>
    <rect x="700.002516" y="0.000000" width="5.685964" height="10.000000" fill="#ffdd55" stroke-width="0"/>
    <rect x="705.688480" y="0.000000" width="5.157622" height="10.000000" fill="#ffdd55" stroke-width="0"/>
    <rect x="710.846102" y="0.000000" width="4.654439" height="10.000000" fill="#ffdd55" stroke-width="0"/>
    <rect x="715.500541" y="0.000000" width="4.277052" height="10.000000" fill="#ffdd55" stroke-width="0"/>
    <rect x="719.777593" y="0.000000" width="4.251893" height="10.000000" fill="#ffdd55" stroke-width="0"/>
    <rect x="724.029487" y="0.000000" width="4.302211" height="10.000000" fill="#ffdd55" stroke-width="0"/>
    <rect x="728.331698" y="0.000000" width="4.251893" height="10.000000" fill="#ffdd55" stroke-width="0"/>
    <rect x="732.583591" y="0.000000" width="3.622915" height="10.000000" fill="#d38d5f" stroke-width="0"/>
    <rect x="736.206506" y="0.000000" width="6.491056" height="10.000000" fill="#ffdd55" stroke-width="0"/>
    <rect x="742.722721" y="0.000000" width="4.126098" height="10.000000" fill="#ffdd55" stroke-width="0"/>
    <rect x="746.848819" y="0.000000" width="4.000302" height="10.000000" fill="#ffdd55" stroke-width="0"/>
    <rect x="750.849121" y="0.000000" width="4.025461" height="10.000000" fill="#ffdd55" stroke-width="0"/>
    <rect x="754.874582" y="0.000000" width="4.000302" height="10.000000" fill="#ffdd55" stroke-width="0"/>
    <rect x="758.874884" y="0.000000" width="4.000302" height="10.000000" fill="#ffdd55" stroke-width="0"/>
    <rect x="762.900345" y="0.000000" width="3.975143" height="10.000000" fill="#ffdd55" stroke-width="0"/>
    <rect x="766.875487" y="0.000000" width="3.924825" height="10.000000" fill="#ffdd55" stroke-width="0"/>
    <rect x="770.800312" y="0.000000" width="3.949984" height="10.000000" fill="#ffdd55" stroke-width="0"/>
    <rect x="774.750296" y="0.000000" width="3.924825" height="10.000000" fill="#ffdd55" stroke-width="0"/>
    <rect x="778.675120" y="0.000000" width="3.899665" height="10.000000" fill="#ffdd55" stroke-width="0"/>
    <rect x="782.574786" y="0.000000" width="3.949984" height="10.000000" fill="#ffdd55" stroke-width="0"/>
    <rect x="786.524769" y="0.000000" width="3.270687" height="10.000000" fill="#d38d5f" stroke-width="0"/>
    <rect x="789.795456" y="0.000000" width="3.597756" height="10.000000" fill="#ffdd55" stroke-width="0"/>
    <rect x="793.393212" y="0.000000" width="3.572597" height="10.000000" fill="#ffdd55" stroke-width="0"/>
    <rect x="796.965809" y="0.000000" width="3.547438" height="10.000000" fill="#ffdd55" stroke-width="0"/>
    <rect x="800.513246" y="0.000000" width="3.547438" height="10.000000" fill="#ffdd55" stroke-width="0"/>
    <rect x="804.060684" y="0.000000" width="3.572597" height="10.000000" fill="#ffdd55" stroke-width="0"/>
    <rect x="807.633280" y="0.000000" width="3.522278" height="10.000000" fill="#ffdd55" stroke-width="0"/>
    <rect x="811.155559" y="0.000000" width="3.522278" height="10.000000" fill="#ffdd55" stroke-width="0"/>
    <rect x="814.702996" y="0.000000" width="3.497119" height="10.000000" fill="#ffdd55" stroke-width="0"/>
    <rect x="818.200116" y="0.000000" width="3.547438" height="10.000000" fill="#ffdd55" stroke-width="0"/>
    <rect x="821.747553" y="0.000000" width="3.497119" height="10.000000" fill="#ffdd55" stroke-width="0"/>
    <rect x="825.244673" y="0.000000" width="3.497119" height="10.000000" fill="#ffdd55" stroke-width="0"/>
    <rect x="828.766951" y="0.000000" width="2.918459" height="10.000000" fill="#d38d5f" stroke-width="0"/>
    <rect x="831.685410" y="0.000000" width="3.195210" height="10.000000" fill="#ffdd55" stroke-width="0"/>
    <rect x="834.880620" y="0.000000" width="4.176416" height="10.000000" fill="#ffdd55" stroke-width="0"/>
    <rect x="839.057036" y="0.000000" width="3.220369" height="10.000000" fill="#ffdd55" stroke-width="0"/>
    <rect x="842.277405" y="0.000000" width="3.195210" height="10.000000" fill="#ffdd55" stroke-width="0"/>
    <rect x="845.472614" y="0.000000" width="3.195210" height="10.000000" fill="#ffdd55" stroke-width="0"/>
    <rect x="848.667824" y="0.000000" width="3.195210" height="10.000000" fill="#ffdd55" stroke-width="0"/>
    <rect x="851.863034" y="0.000000" width="3.195210" height="10.000000" fill="#ffdd55" stroke-width="0"/>
    <rect x="855.058243" y="0.000000" width="3.195210" height="10.000000" fill="#ffdd55" stroke-width="0"/>
    <rect x="858.253453" y="0.000000" width="3.220369" height="10.000000" fill="#ffdd55" stroke-width="0"/>
    <rect x="861.473822" y="0.000000" width="3.195210" height="10.000000" fill="#ffdd55" stroke-width="0"/>
    <rect x="864.669032" y="0.000000" width="2.666868" height="10.000000" fill="#d38d5f" stroke-width="0"/>
    <rect x="867.335900" y="0.000000" width="2.943618" height="10.000000" fill="#ffdd55" stroke-width="0"/>
    <rect x="870.279518" y="0.000000" width="2.943618" height="10.000000" fill="#ffdd55" stroke-width="0"/>
    <rect x="873.223136" y="0.000000" width="2.918459" height="10.000000" fill="#ffdd55" stroke-width="0"/>
    <rect x="876.141596" y="0.000000" width="2.943618" height="10.000000" fill="#ffdd55" stroke-width="0"/>
    <rect x="879.085214" y="0.000000" width="2.968778" height="10.000000" fill="#ffdd55" stroke-width="0"/>
    <rect x="882.053991" y="0.000000" width="3.421642" height="10.000000" fill="#ffdd55" stroke-width="0"/>
    <rect x="885.475633" y="0.000000" width="4.075779" height="10.000000" fill="#ffdd55" stroke-width="0"/>
    <rect x="889.551413" y="0.000000" width="3.849347" height="10.000000" fill="#ffdd55" stroke-width="0"/>
    <rect x="893.400760" y="0.000000" width="3.220369" height="10.000000" fill="#ffdd55" stroke-width="0"/>
    <rect x="896.621129" y="0.000000" width="3.094573" height="10.000000" fill="#d38d5f" stroke-width="0"/>
    <rect x="899.715702" y="0.000000" width="3.572597" height="10.000000" fill="#ffdd55" stroke-width="0"/>
    <rect x="903.288298" y="0.000000" width="3.119732" height="10.000000" fill="#ffdd55" stroke-width="0"/>
    <rect x="906.408031" y="0.000000" width="2.792664" height="10.000000" fill="#ffdd55" stroke-width="0"/>
    <rect x="909.200694" y="0.000000" width="2.817823" height="10.000000" fill="#ffdd55" stroke-width="0"/>
    <rect x="912.043676" y="0.000000" width="2.817823" height="10.000000" fill="#ffdd55" stroke-width="0"/>
    <rect x="914.861499" y="0.000000" width="3.195210" height="10.000000" fill="#ffdd55" stroke-width="0"/>
    <rect x="918.056709" y="0.000000" width="3.824188" height="10.000000" fill="#ffdd55" stroke-width="0"/>
    <rect x="921.880897" y="0.000000" width="3.522278" height="10.000000" fill="#ffdd55" stroke-width="0"/>
    <rect x="925.403175" y="0.000000" width="3.421642" height="10.000000" fill="#d38d5f" stroke-width="0"/>
    <rect x="928.824817" y="0.000000" width="2.490754" height="10.000000" fill="#ffdd55" stroke-width="0"/>
    <rect x="931.315571" y="0.000000" width="2.515913" height="10.000000" fill="#ffdd55" stroke-width="0"/>
    <rect x="933.831484" y="0.000000" width="2.465595" height="10.000000" fill="#ffdd55" stroke-width="0"/>
    <rect x="936.297079" y="0.000000" width="3.371324" height="10.000000" fill="#ffdd55" stroke-width="0"/>
    <rect x="939.668403" y="0.000000" width="2.515913" height="10.000000" fill="#ffdd55" stroke-width="0"/>
    <rect x="942.184316" y="0.000000" width="2.490754" height="10.000000" fill="#ffdd55" stroke-width="0"/>
    <rect x="944.675070" y="0.000000" width="2.490754" height="10.000000" fill="#ffdd55" stroke-width="0"/>
    <rect x="947.165824" y="0.000000" width="2.113367" height="10.000000" fill="#d38d5f" stroke-width="0"/>
    <rect x="949.304350" y="0.000000" width="2.138526" height="10.000000" fill="#ffdd55" stroke-width="0"/>
    <rect x="951.442876" y="0.000000" width="2.138526" height="10.000000" fill="#ffdd55" stroke-width="0"/>
    <rect x="953.581402" y="0.000000" width="2.163685" height="10.000000" fill="#ffdd55" stroke-width="0"/>
    <rect x="955.745088" y="0.000000" width="2.138526" height="10.000000" fill="#ffdd55" stroke-width="0"/>
    <rect x="957.883614" y="0.000000" width="3.044255" height="10.000000" fill="#ffdd55" stroke-width="0"/>
    <rect x="960.927869" y="0.000000" width="2.138526" height="10.000000" fill="#ffdd55" stroke-width="0"/>
    <rect x="963.066395" y="0.000000" width="1.786298" height="10.000000" fill="#d38d5f" stroke-width="0"/>
    <rect x="964.852693" y="0.000000" width="2.214004" height="10.000000" fill="#ffdd55" stroke-width="0"/>
    <rect x="967.066697" y="0.000000" width="1.861776" height="10.000000" fill="#ffdd55" stroke-width="0"/>
    <rect x="968.928473" y="0.000000" width="1.861776" height="10.000000" fill="#ffdd55" stroke-width="0"/>
    <rect x="970.790248" y="0.000000" width="1.836617" height="10.000000" fill="#ffdd55" stroke-width="0"/>
    <rect x="972.626865" y="0.000000" width="1.836617" height="10.000000" fill="#ffdd55" stroke-width="0"/>
    <rect x="974.463482" y="0.000000" width="1.509548" height="10.000000" fill="#d38d5f" stroke-width="0"/>
    <rect x="975.973029" y="0.000000" width="1.559866" height="10.000000" fill="#ffdd55" stroke-width="0"/>
    <rect x="977.532896" y="0.000000" width="1.534707" height="10.000000" fill="#ffdd55" stroke-width="0"/>
    <rect x="979.092762" y="0.000000" width="1.534707" height="10.000000" fill="#ffdd55" stroke-width="0"/>
    <rect x="980.627469" y="0.000000" width="1.534707" height="10.000000" fill="#ffdd55" stroke-width="0"/>
    <rect x="982.187335" y="0.000000" width="1.283116" height="10.000000" fill="#d38d5f" stroke-width="0"/>
    <rect x="983.470451" y="0.000000" width="1.232797" height="10.000000" fill="#ffdd55" stroke-width="0"/>
    <rect x="984.703248" y="0.000000" width="1.232797" height="10.000000" fill="#ffdd55" stroke-width="0"/>
    <rect x="985.936045" y="0.000000" width="1.257957" height="10.000000" fill="#ffdd55" stroke-width="0"/>
    <rect x="987.194002" y="0.000000" width="1.006365" height="10.000000" fill="#d38d5f" stroke-width="0"/>
    <rect x="988.200367" y="0.000000" width="0.981206" height="10.000000" fill="#ffdd55" stroke-width="0"/>
    <rect x="989.181573" y="0.000000" width="0.956047" height="10.000000" fill="#ffdd55" stroke-width="0"/>
    <rect x="990.137620" y="0.000000" width="0.779933" height="10.000000" fill="#d38d5f" stroke-width="0"/>
    <rect x="990.917554" y="0.000000" width="0.628978" height="10.000000" fill="#ffdd55" stroke-width="0"/>
    <rect x="991.546532" y="0.000000" width="0.528342" height="10.000000" fill="#d38d5f" stroke-width="0"/>
    <rect x="992.074874" y="0.000000" width="7.925126" height="10.000000" fill="#8dd35f" stroke-width="0"/>
<line x1="0" y1="20.200000" x2="1020.000000" y2="20.200000"                      style="stroke:rgb(0,0,0);stroke-width:1"/>
<text x="1010.000000" y="8.000000" style="font-size:6pt">Thread 0</text>
<text x="0" y="28.000000" style="font-size:6pt">Time (usec.)</text>
<line x1="100.000000" y1="19.200000" x2="100.000000" y2="21.200000"                      style="stroke:rgb(0,0,0);stroke-width:0.5"/>
<text x="100.000000" y="27.200000" style="font-size:6pt"> 3975 </text>
<line x1="200.000000" y1="19.200000" x2="200.000000" y2="21.200000"                      style="stroke:rgb(0,0,0);stroke-width:0.5"/>
<text x="200.000000" y="27.200000" style="font-size:6pt"> 7949 </text>
<line x1="300.000000" y1="19.200000" x2="300.000000" y2="21.200000"                      style="stroke:rgb(0,0,0);stroke-width:0.5"/>
<text x="300.000000" y="27.200000" style="font-size:6pt"> 11924 </text>
<line x1="400.000000" y1="19.200000" x2="400.000000" y2="21.200000"                      style="stroke:rgb(0,0,0);stroke-width:0.5"/>
<text x="400.000000" y="27.200000" style="font-size:6pt"> 15899 </text>
<line x1="500.000000" y1="19.200000" x2="500.000000" y2="21.200000"                      style="stroke:rgb(0,0,0);stroke-width:0.5"/>
<text x="500.000000" y="27.200000" style="font-size:6pt"> 19874 </text>
<line x1="600.000000" y1="19.200000" x2="600.000000" y2="21.200000"                      style="stroke:rgb(0,0,0);stroke-width:0.5"/>
<text x="600.000000" y="27.200000" style="font-size:6pt"> 23848 </text>
<line x1="700.000000" y1="19.200000" x2="700.000000" y2="21.200000"                      style="stroke:rgb(0,0,0);stroke-width:0.5"/>
<text x="700.000000" y="27.200000" style="font-size:6pt"> 27823 </text>
<line x1="800.000000" y1="19.200000" x2="800.000000" y2="21.200000"                      style="stroke:rgb(0,0,0);stroke-width:0.5"/>
<text x="800.000000" y="27.200000" style="font-size:6pt"> 31798 </text>
<line x1="900.000000" y1="19.200000" x2="900.000000" y2="21.200000"                      style="stroke:rgb(0,0,0);stroke-width:0.5"/>
<text x="900.000000" y="27.200000" style="font-size:6pt"> 35772 </text>
<line x1="1000.000000" y1="19.200000" x2="1000.000000" y2="21.200000"                      style="stroke:rgb(0,0,0);stroke-width:0.5"/>
<text x="1000.000000" y="27.200000" style="font-size:6pt"> 39747 </text>
</svg>
