<svg x="-11" y="-8" width="1060.000000" height="29.000000">
    <rect x="0.052793" y="0.000000" width="7.971703" height="10.000000" fill="#d38d5f" stroke-width="0"/>
    <rect x="8.050892" y="0.000000" width="7.153416" height="10.000000" fill="#ffdd55" stroke-width="0"/>
    <rect x="15.204308" y="0.000000" width="7.047830" height="10.000000" fill="#ffdd55" stroke-width="0"/>
    <rect x="22.252138" y="0.000000" width="7.074227" height="10.000000" fill="#ffdd55" stroke-width="0"/>
    <rect x="29.326365" y="0.000000" width="7.047830" height="10.000000" fill="#ffdd55" stroke-width="0"/>
    <rect x="36.400591" y="0.000000" width="7.074227" height="10.000000" fill="#ffdd55" stroke-width="0"/>
    <rect x="43.474818" y="0.000000" width="7.074227" height="10.000000" fill="#ffdd55" stroke-width="0"/>
    <rect x="50.549044" y="0.000000" width="7.100623" height="10.000000" fill="#ffdd55" stroke-width="0"/>
    <rect x="57.649667" y="0.000000" width="7.259001" height="10.000000" fill="#ffdd55" stroke-width="0"/>
    <rect x="64.908669" y="0.000000" width="7.074227" height="10.000000" fill="#ffdd55" stroke-width="0"/>
    <rect x="71.982895" y="0.000000" width="7.100623" height="10.000000" fill="#ffdd55" stroke-width="0"/>
    <rect x="79.083518" y="0.000000" width="7.074227" height="10.000000" fill="#ffdd55" stroke-width="0"/>
    <rect x="86.157745" y="0.000000" width="7.100623" height="10.000000" fill="#ffdd55" stroke-width="0"/>
    <rect x="93.258368" y="0.000000" width="7.074227" height="10.000000" fill="#ffdd55" stroke-width="0"/>
    <rect x="100.332594" y="0.000000" width="7.100623" height="10.000000" fill="#ffdd55" stroke-width="0"/>
    <rect x="107.433217" y="0.000000" width="7.100623" height="10.000000" fill="#ffdd55" stroke-width="0"/>
    <rect x="114.533840" y="0.000000" width="7.074227" height="10.000000" fill="#ffdd55" stroke-width="0"/>
    <rect x="121.608067" y="0.000000" width="7.127019" height="10.000000" fill="#ffdd55" stroke-width="0"/>
    <rect x="128.735086" y="0.000000" width="7.206208" height="10.000000" fill="#ffdd55" stroke-width="0"/>
    <rect x="135.941294" y="0.000000" width="7.232605" height="10.000000" fill="#ffdd55" stroke-width="0"/>
    <rect x="143.173899" y="0.000000" width="6.387921" height="10.000000" fill="#d38d5f" stroke-width="0"/>
    <rect x="149.561820" y="0.000000" width="6.889452" height="10.000000" fill="#ffdd55" stroke-width="0"/>
    <rect x="156.451272" y="0.000000" width="6.783867" height="10.000000" fill="#ffdd55" stroke-width="0"/>
    <rect x="163.235139" y="0.000000" width="7.153416" height="10.000000" fill="#ffdd55" stroke-width="0"/>
    <rect x="170.388555" y="0.000000" width="6.942245" height="10.000000" fill="#ffdd55" stroke-width="0"/>
    <rect x="177.330799" y="0.000000" width="6.995037" height="10.000000" fill="#ffdd55" stroke-width="0"/>
    <rect x="184.325837" y="0.000000" width="7.047830" height="10.000000" fill="#ffdd55" stroke-width="0"/>
    <rect x="191.373667" y="0.000000" width="6.836659" height="10.000000" fill="#ffdd55" stroke-width="0"/>
    <rect x="198.236723" y="0.000000" width="6.836659" height="10.000000" fill="#ffdd55" stroke-width="0"/>
    <rect x="205.073382" y="0.000000" width="6.889452" height="10.000000" fill="#ffdd55" stroke-width="0"/>
    <rect x="211.989230" y="0.000000" width="6.836659" height="10.000000" fill="#ffdd55" stroke-width="0"/>
    <rect x="218.825890" y="0.000000" width="6.889452" height="10.000000" fill="#ffdd55" stroke-width="0"/>
    <rect x="225.715342" y="0.000000" width="6.995037" height="10.000000" fill="#ffdd55" stroke-width="0"/>
    <rect x="232.710379" y="0.000000" width="7.047830" height="10.000000" fill="#ffdd55" stroke-width="0"/>
    <rect x="239.758209" y="0.000000" width="6.889452" height="10.000000" fill="#ffdd55" stroke-width="0"/>
    <rect x="246.674058" y="0.000000" width="6.783867" height="10.000000" fill="#ffdd55" stroke-width="0"/>
    <rect x="253.457924" y="0.000000" width="7.021434" height="10.000000" fill="#ffdd55" stroke-width="0"/>
    <rect x="260.479358" y="0.000000" width="7.628550" height="10.000000" fill="#ffdd55" stroke-width="0"/>
    <rect x="268.107908" y="0.000000" width="7.074227" height="10.000000" fill="#ffdd55" stroke-width="0"/>
    <rect x="275.182135" y="0.000000" width="5.728012" height="10.000000" fill="#d38d5f" stroke-width="0"/>
    <rect x="280.936543" y="0.000000" width="6.467110" height="10.000000" fill="#ffdd55" stroke-width="0"/>
    <rect x="287.403653" y="0.000000" width="6.414317" height="10.000000" fill="#ffdd55" stroke-width="0"/>
    <rect x="293.817971" y="0.000000" width="6.493506" height="10.000000" fill="#ffdd55" stroke-width="0"/>
    <rect x="300.311477" y="0.000000" width="6.546299" height="10.000000" fill="#ffdd55" stroke-width="0"/>
    <rect x="306.857776" y="0.000000" width="6.493506" height="10.000000" fill="#ffdd55" stroke-width="0"/>
    <rect x="313.351283" y="0.000000" width="6.493506" height="10.000000" fill="#ffdd55" stroke-width="0"/>
    <rect x="319.844789" y="0.000000" width="6.467110" height="10.000000" fill="#ffdd55" stroke-width="0"/>
    <rect x="326.311899" y="0.000000" width="6.440714" height="10.000000" fill="#ffdd55" stroke-width="0"/>
    <rect x="332.752613" y="0.000000" width="6.440714" height="10.000000" fill="#ffdd55" stroke-width="0"/>
    <rect x="339.193327" y="0.000000" width="6.414317" height="10.000000" fill="#ffdd55" stroke-width="0"/>
    <rect x="345.607644" y="0.000000" width="6.414317" height="10.000000" fill="#ffdd55" stroke-width="0"/>
    <rect x="352.021962" y="0.000000" width="6.414317" height="10.000000" fill="#ffdd55" stroke-width="0"/>
    <rect x="358.436279" y="0.000000" width="6.467110" height="10.000000" fill="#ffdd55" stroke-width="0"/>
    <rect x="364.903389" y="0.000000" width="6.440714" height="10.000000" fill="#ffdd55" stroke-width="0"/>
    <rect x="371.344103" y="0.000000" width="6.493506" height="10.000000" fill="#ffdd55" stroke-width="0"/>
    <rect x="377.837610" y="0.000000" width="6.678281" height="10.000000" fill="#ffdd55" stroke-width="0"/>
    <rect x="384.515891" y="0.000000" width="6.361525" height="10.000000" fill="#ffdd55" stroke-width="0"/>
    <rect x="390.877415" y="0.000000" width="5.384859" height="10.000000" fill="#d38d5f" stroke-width="0"/>
    <rect x="396.262274" y="0.000000" width="6.176750" height="10.000000" fill="#ffdd55" stroke-width="0"/>
    <rect x="402.439024" y="0.000000" width="5.516841" height="10.000000" fill="#ffdd55" stroke-width="0"/>
    <rect x="407.955865" y="0.000000" width="5.490445" height="10.000000" fill="#ffdd55" stroke-width="0"/>
    <rect x="413.446310" y="0.000000" width="6.203146" height="10.000000" fill="#ffdd55" stroke-width="0"/>
    <rect x="419.675853" y="0.000000" width="5.596030" height="10.000000" fill="#ffdd55" stroke-width="0"/>
    <rect x="425.271883" y="0.000000" width="5.569634" height="10.000000" fill="#ffdd55" stroke-width="0"/>
    <rect x="430.841516" y="0.000000" width="5.596030" height="10.000000" fill="#ffdd55" stroke-width="0"/>
    <rect x="436.437546" y="0.000000" width="5.596030" height="10.000000" fill="#ffdd55" stroke-width="0"/>
    <rect x="442.033576" y="0.000000" width="5.569634" height="10.000000" fill="#ffdd55" stroke-width="0"/>
    <rect x="447.603210" y="0.000000" width="5.596030" height="10.000000" fill="#ffdd55" stroke-width="0"/>
    <rect x="453.199240" y="0.000000" width="5.596030" height="10.000000" fill="#ffdd55" stroke-width="0"/>
    <rect x="458.795270" y="0.000000" width="5.596030" height="10.000000" fill="#ffdd55" stroke-width="0"/>
    <rect x="464.391300" y="0.000000" width="6.942245" height="10.000000" fill="#ffdd55" stroke-width="0"/>
    <rect x="471.333545" y="0.000000" width="6.255939" height="10.000000" fill="#ffdd55" stroke-width="0"/>
    <rect x="477.589484" y="0.000000" width="5.596030" height="10.000000" fill="#ffdd55" stroke-width="0"/>
    <rect x="483.185514" y="0.000000" width="5.728012" height="10.000000" fill="#ffdd55" stroke-width="0"/>
    <rect x="488.913525" y="0.000000" width="4.751346" height="10.000000" fill="#d38d5f" stroke-width="0"/>
    <rect x="493.664872" y="0.000000" width="5.226481" height="10.000000" fill="#ffdd55" stroke-width="0"/>
    <rect x="498.891353" y="0.000000" width="5.200084" height="10.000000" fill="#ffdd55" stroke-width="0"/>
    <rect x="504.091437" y="0.000000" width="5.384859" height="10.000000" fill="#ffdd55" stroke-width="0"/>
    <rect x="509.476296" y="0.000000" width="5.252877" height="10.000000" fill="#ffdd55" stroke-width="0"/>
    <rect x="514.729173" y="0.000000" width="5.200084" height="10.000000" fill="#ffdd55" stroke-width="0"/>
    <rect x="519.929258" y="0.000000" width="5.226481" height="10.000000" fill="#ffdd55" stroke-width="0"/>
    <rect x="525.155739" y="0.000000" width="5.173688" height="10.000000" fill="#ffdd55" stroke-width="0"/>
    <rect x="530.329427" y="0.000000" width="5.569634" height="10.000000" fill="#ffdd55" stroke-width="0"/>
    <rect x="535.899060" y="0.000000" width="5.252877" height="10.000000" fill="#ffdd55" stroke-width="0"/>
    <rect x="541.151937" y="0.000000" width="5.991976" height="10.000000" fill="#ffdd55" stroke-width="0"/>
    <rect x="547.143913" y="0.000000" width="5.939183" height="10.000000" fill="#ffdd55" stroke-width="0"/>
    <rect x="553.109492" y="0.000000" width="5.358463" height="10.000000" fill="#ffdd55" stroke-width="0"/>
    <rect x="558.494351" y="0.000000" width="6.071165" height="10.000000" fill="#ffdd55" stroke-width="0"/>
    <rect x="564.565516" y="0.000000" width="5.939183" height="10.000000" fill="#ffdd55" stroke-width="0"/>
    <rect x="570.504699" y="0.000000" width="6.018372" height="10.000000" fill="#ffdd55" stroke-width="0"/>
    <rect x="576.523070" y="0.000000" width="4.487383" height="10.000000" fill="#d38d5f" stroke-width="0"/>
    <rect x="581.010453" y="0.000000" width="4.804139" height="10.000000" fill="#ffdd55" stroke-width="0"/>
    <rect x="585.840988" y="0.000000" width="5.807201" height="10.000000" fill="#ffdd55" stroke-width="0"/>
    <rect x="591.648189" y="0.000000" width="6.995037" height="10.000000" fill="#ffdd55" stroke-width="0"/>
    <rect x="598.643227" y="0.000000" width="6.493506" height="10.000000" fill="#ffdd55" stroke-width="0"/>
    <rect x="605.163130" y="0.000000" width="5.543237" height="10.000000" fill="#ffdd55" stroke-width="0"/>
    <rect x="610.732763" y="0.000000" width="4.777743" height="10.000000" fill="#ffdd55" stroke-width="0"/>
    <rect x="615.510506" y="0.000000" width="4.751346" height="10.000000" fill="#ffdd55" stroke-width="0"/>
    <rect x="620.261852" y="0.000000" width="4.777743" height="10.000000" fill="#ffdd55" stroke-width="0"/>
    <rect x="625.039595" y="0.000000" width="4.751346" height="10.000000" fill="#ffdd55" stroke-width="0"/>
    <rect x="629.790941" y="0.000000" width="4.751346" height="10.000000" fill="#ffdd55" stroke-width="0"/>
    <rect x="634.542287" y="0.000000" width="4.751346" height="10.000000" fill="#ffdd55" stroke-width="0"/>
    <rect x="639.293633" y="0.000000" width="4.777743" height="10.000000" fill="#ffdd55" stroke-width="0"/>
    <rect x="644.071376" y="0.000000" width="4.751346" height="10.000000" fill="#ffdd55" stroke-width="0"/>
    <rect x="648.822722" y="0.000000" width="4.724950" height="10.000000" fill="#ffdd55" stroke-width="0"/>
    <rect x="653.547672" y="0.000000" width="4.065041" height="10.000000" fill="#d38d5f" stroke-width="0"/>
    <rect x="657.612712" y="0.000000" width="4.408193" height="10.000000" fill="#ffdd55" stroke-width="0"/>
    <rect x="662.020906" y="0.000000" width="4.381797" height="10.000000" fill="#ffdd55" stroke-width="0"/>
    <rect x="666.402703" y="0.000000" width="4.355401" height="10.000000" fill="#ffdd55" stroke-width="0"/>
    <rect x="670.784500" y="0.000000" width="4.302608" height="10.000000" fill="#ffdd55" stroke-width="0"/>
    <rect x="675.087108" y="0.000000" width="4.329004" height="10.000000" fill="#ffdd55" stroke-width="0"/>
    <rect x="679.416112" y="0.000000" width="4.276212" height="10.000000" fill="#ffdd55" stroke-width="0"/>
    <rect x="683.692324" y="0.000000" width="4.302608" height="10.000000" fill="#ffdd55" stroke-width="0"/>
    <rect x="687.994932" y="0.000000" width="4.302608" height="10.000000" fill="#ffdd55" stroke-width="0"/>
    <rect x="692.323936" y="0.000000" width="5.226481" height="10.000000" fill="#ffdd55" stroke-width="0"/>
    <rect x="697.550417" y="0.000000" width="4.302608" height="10.000000" fill="#ffdd55" stroke-width="0"/>
    <rect x="701.853025" y="0.000000" width="4.302608" height="10.000000" fill="#ffdd55" stroke-width="0"/>
    <rect x="706.155633" y="0.000000" width="4.302608" height="10.000000" fill="#ffdd55" stroke-width="0"/>
    <rect x="710.458241" y="0.000000" width="4.302608" height="10.000000" fill="#ffdd55" stroke-width="0"/>
    <rect x="714.760849" y="0.000000" width="3.616302" height="10.000000" fill="#d38d5f" stroke-width="0"/>
    <rect x="718.377151" y="0.000000" width="4.091437" height="10.000000" fill="#ffdd55" stroke-width="0"/>
    <rect x="722.468588" y="0.000000" width="4.144230" height="10.000000" fill="#ffdd55" stroke-width="0"/>
    <rect x="726.612818" y="0.000000" width="4.117833" height="10.000000" fill="#ffdd55" stroke-width="0"/>
    <rect x="730.730651" y="0.000000" width="5.094499" height="10.000000" fill="#ffdd55" stroke-width="0"/>
    <rect x="735.825150" y="0.000000" width="5.094499" height="10.000000" fill="#ffdd55" stroke-width="0"/>
    <rect x="740.919649" y="0.000000" width="4.117833" height="10.000000" fill="#ffdd55" stroke-width="0"/>
    <rect x="745.037483" y="0.000000" width="5.622426" height="10.000000" fill="#ffdd55" stroke-width="0"/>
    <rect x="750.659909" y="0.000000" width="4.249815" height="10.000000" fill="#ffdd55" stroke-width="0"/>
    <rect x="754.909724" y="0.000000" width="4.329004" height="10.000000" fill="#ffdd55" stroke-width="0"/>
    <rect x="759.238729" y="0.000000" width="4.197022" height="10.000000" fill="#ffdd55" stroke-width="0"/>
    <rect x="763.435751" y="0.000000" width="4.223419" height="10.000000" fill="#ffdd55" stroke-width="0"/>
    <rect x="767.659170" y="0.000000" width="4.223419" height="10.000000" fill="#ffdd55" stroke-width="0"/>
    <rect x="771.882589" y="0.000000" width="3.695492" height="10.000000" fill="#d38d5f" stroke-width="0"/>
    <rect x="775.578080" y="0.000000" width="4.065041" height="10.000000" fill="#ffdd55" stroke-width="0"/>
    <rect x="779.643121" y="0.000000" width="3.880266" height="10.000000" fill="#ffdd55" stroke-width="0"/>
    <rect x="783.523387" y="0.000000" width="3.933059" height="10.000000" fill="#ffdd55" stroke-width="0"/>
    <rect x="787.456446" y="0.000000" width="3.880266" height="10.000000" fill="#ffdd55" stroke-width="0"/>
    <rect x="791.336712" y="0.000000" width="4.566572" height="10.000000" fill="#ffdd55" stroke-width="0"/>
    <rect x="795.903284" y="0.000000" width="3.985852" height="10.000000" fill="#ffdd55" stroke-width="0"/>
    <rect x="799.889135" y="0.000000" width="4.144230" height="10.000000" fill="#ffdd55" stroke-width="0"/>
    <rect x="804.033365" y="0.000000" width="3.985852" height="10.000000" fill="#ffdd55" stroke-width="0"/>
    <rect x="808.019217" y="0.000000" width="3.959455" height="10.000000" fill="#ffdd55" stroke-width="0"/>
    <rect x="812.005068" y="0.000000" width="3.933059" height="10.000000" fill="#ffdd55" stroke-width="0"/>
    <rect x="815.938127" y="0.000000" width="3.959455" height="10.000000" fill="#ffdd55" stroke-width="0"/>
    <rect x="819.897582" y="0.000000" width="3.325942" height="10.000000" fill="#d38d5f" stroke-width="0"/>
    <rect x="823.223524" y="0.000000" width="3.563510" height="10.000000" fill="#ffdd55" stroke-width="0"/>
    <rect x="826.787034" y="0.000000" width="3.589906" height="10.000000" fill="#ffdd55" stroke-width="0"/>
    <rect x="830.376940" y="0.000000" width="3.537113" height="10.000000" fill="#ffdd55" stroke-width="0"/>
    <rect x="833.914053" y="0.000000" width="4.223419" height="10.000000" fill="#ffdd55" stroke-width="0"/>
    <rect x="838.137472" y="0.000000" width="3.510717" height="10.000000" fill="#ffdd55" stroke-width="0"/>
    <rect x="841.648189" y="0.000000" width="3.484321" height="10.000000" fill="#ffdd55" stroke-width="0"/>
    <rect x="845.132510" y="0.000000" width="3.510717" height="10.000000" fill="#ffdd55" stroke-width="0"/>
    <rect x="848.643227" y="0.000000" width="3.510717" height="10.000000" fill="#ffdd55" stroke-width="0"/>
    <rect x="852.153944" y="0.000000" width="3.510717" height="10.000000" fill="#ffdd55" stroke-width="0"/>
    <rect x="855.664661" y="0.000000" width="3.484321" height="10.000000" fill="#ffdd55" stroke-width="0"/>
    <rect x="859.148981" y="0.000000" width="2.929997" height="10.000000" fill="#d38d5f" stroke-width="0"/>
    <rect x="862.078978" y="0.000000" width="3.167564" height="10.000000" fill="#ffdd55" stroke-width="0"/>
    <rect x="865.246542" y="0.000000" width="3.193961" height="10.000000" fill="#ffdd55" stroke-width="0"/>
    <rect x="868.440503" y="0.000000" width="3.167564" height="10.000000" fill="#ffdd55" stroke-width="0"/>
    <rect x="871.608067" y="0.000000" width="3.167564" height="10.000000" fill="#ffdd55" stroke-width="0"/>
    <rect x="874.775631" y="0.000000" width="3.193961" height="10.000000" fill="#ffdd55" stroke-width="0"/>
    <rect x="877.969591" y="0.000000" width="3.299546" height="10.000000" fill="#ffdd55" stroke-width="0"/>
    <rect x="881.269137" y="0.000000" width="3.220357" height="10.000000" fill="#ffdd55" stroke-width="0"/>
    <rect x="884.489494" y="0.000000" width="3.273150" height="10.000000" fill="#ffdd55" stroke-width="0"/>
    <rect x="887.762644" y="0.000000" width="3.246753" height="10.000000" fill="#ffdd55" stroke-width="0"/>
    <rect x="891.009397" y="0.000000" width="2.771619" height="10.000000" fill="#d38d5f" stroke-width="0"/>
    <rect x="893.781016" y="0.000000" width="3.061979" height="10.000000" fill="#ffdd55" stroke-width="0"/>
    <rect x="896.842994" y="0.000000" width="3.193961" height="10.000000" fill="#ffdd55" stroke-width="0"/>
    <rect x="900.036955" y="0.000000" width="3.193961" height="10.000000" fill="#ffdd55" stroke-width="0"/>
    <rect x="903.230915" y="0.000000" width="3.035582" height="10.000000" fill="#ffdd55" stroke-width="0"/>
    <rect x="906.266498" y="0.000000" width="3.457924" height="10.000000" fill="#ffdd55" stroke-width="0"/>
    <rect x="909.724422" y="0.000000" width="3.721888" height="10.000000" fill="#ffdd55" stroke-width="0"/>
    <rect x="913.446310" y="0.000000" width="2.982790" height="10.000000" fill="#ffdd55" stroke-width="0"/>
    <rect x="916.429099" y="0.000000" width="3.906662" height="10.000000" fill="#ffdd55" stroke-width="0"/>
    <rect x="920.335762" y="0.000000" width="2.613240" height="10.000000" fill="#d38d5f" stroke-width="0"/>
    <rect x="922.949002" y="0.000000" width="2.586844" height="10.000000" fill="#ffdd55" stroke-width="0"/>
    <rect x="925.535846" y="0.000000" width="2.586844" height="10.000000" fill="#ffdd55" stroke-width="0"/>
    <rect x="928.122690" y="0.000000" width="2.560448" height="10.000000" fill="#ffdd55" stroke-width="0"/>
    <rect x="930.683138" y="0.000000" width="2.560448" height="10.000000" fill="#ffdd55" stroke-width="0"/>
    <rect x="933.243586" y="0.000000" width="2.534051" height="10.000000" fill="#ffdd55" stroke-width="0"/>
    <rect x="935.777637" y="0.000000" width="2.534051" height="10.000000" fill="#ffdd55" stroke-width="0"/>
    <rect x="938.311688" y="0.000000" width="3.985852" height="10.000000" fill="#ffdd55" stroke-width="0"/>
    <rect x="942.297540" y="0.000000" width="3.642699" height="10.000000" fill="#d38d5f" stroke-width="0"/>
    <rect x="945.940239" y="0.000000" width="2.349277" height="10.000000" fill="#ffdd55" stroke-width="0"/>
    <rect x="948.289515" y="0.000000" width="2.243691" height="10.000000" fill="#ffdd55" stroke-width="0"/>
    <rect x="950.533207" y="0.000000" width="2.270088" height="10.000000" fill="#ffdd55" stroke-width="0"/>
    <rect x="952.803294" y="0.000000" width="2.217295" height="10.000000" fill="#ffdd55" stroke-width="0"/>
    <rect x="955.020589" y="0.000000" width="2.164502" height="10.000000" fill="#ffdd55" stroke-width="0"/>
    <rect x="957.185091" y="0.000000" width="2.190899" height="10.000000" fill="#ffdd55" stroke-width="0"/>
    <rect x="959.375990" y="0.000000" width="1.821349" height="10.000000" fill="#d38d5f" stroke-width="0"/>
    <rect x="961.197339" y="0.000000" width="1.874142" height="10.000000" fill="#ffdd55" stroke-width="0"/>
    <rect x="963.071481" y="0.000000" width="1.874142" height="10.000000" fill="#ffdd55" stroke-width="0"/>
    <rect x="964.945623" y="0.000000" width="1.874142" height="10.000000" fill="#ffdd55" stroke-width="0"/>
    <rect x="966.819766" y="0.000000" width="1.874142" height="10.000000" fill="#ffdd55" stroke-width="0"/>
    <rect x="968.693908" y="0.000000" width="1.874142" height="10.000000" fill="#ffdd55" stroke-width="0"/>
    <rect x="970.568050" y="0.000000" width="1.557386" height="10.000000" fill="#d38d5f" stroke-width="0"/>
    <rect x="972.125436" y="0.000000" width="1.583782" height="10.000000" fill="#ffdd55" stroke-width="0"/>
    <rect x="973.709218" y="0.000000" width="1.557386" height="10.000000" fill="#ffdd55" stroke-width="0"/>
    <rect x="975.266603" y="0.000000" width="1.583782" height="10.000000" fill="#ffdd55" stroke-width="0"/>
    <rect x="976.850385" y="0.000000" width="1.583782" height="10.000000" fill="#ffdd55" stroke-width="0"/>
    <rect x="978.434167" y="0.000000" width="1.319818" height="10.000000" fill="#d38d5f" stroke-width="0"/>
    <rect x="979.753986" y="0.000000" width="1.267026" height="10.000000" fill="#ffdd55" stroke-width="0"/>
    <rect x="981.021012" y="0.000000" width="1.267026" height="10.000000" fill="#ffdd55" stroke-width="0"/>
    <rect x="982.288037" y="0.000000" width="1.267026" height="10.000000" fill="#ffdd55" stroke-width="0"/>
    <rect x="983.555063" y="0.000000" width="1.055855" height="10.000000" fill="#d38d5f" stroke-width="0"/>
    <rect x="984.610918" y="0.000000" width="0.976666" height="10.000000" fill="#ffdd55" stroke-width="0"/>
    <rect x="985.587583" y="0.000000" width="0.976666" height="10.000000" fill="#ffdd55" stroke-width="0"/>
    <rect x="986.564249" y="0.000000" width="0.818287" height="10.000000" fill="#d38d5f" stroke-width="0"/>
    <rect x="987.382536" y="0.000000" width="0.633513" height="10.000000" fill="#ffdd55" stroke-width="0"/>
    <rect x="988.016049" y="0.000000" width="0.554324" height="10.000000" fill="#d38d5f" stroke-width="0"/>
    <rect x="988.570373" y="0.000000" width="11.429627" height="10.000000" fill="#8dd35f" stroke-width="0"/>
<line x1="0" y1="20.200000" x2="1020.000000" y2="20.200000"                      style="stroke:rgb(0,0,0);stroke-width:1"/>
<text x="1010.000000" y="8.000000" style="font-size:6pt">Thread 0</text>
<text x="0" y="28.000000" style="font-size:6pt">Time (usec.)</text>
<line x1="100.000000" y1="19.200000" x2="100.000000" y2="21.200000"                      style="stroke:rgb(0,0,0);stroke-width:0.5"/>
<text x="100.000000" y="27.200000" style="font-size:6pt"> 3788 </text>
<line x1="200.000000" y1="19.200000" x2="200.000000" y2="21.200000"                      style="stroke:rgb(0,0,0);stroke-width:0.5"/>
<text x="200.000000" y="27.200000" style="font-size:6pt"> 7577 </text>
<line x1="300.000000" y1="19.200000" x2="300.000000" y2="21.200000"                      style="stroke:rgb(0,0,0);stroke-width:0.5"/>
<text x="300.000000" y="27.200000" style="font-size:6pt"> 11365 </text>
<line x1="400.000000" y1="19.200000" x2="400.000000" y2="21.200000"                      style="stroke:rgb(0,0,0);stroke-width:0.5"/>
<text x="400.000000" y="27.200000" style="font-size:6pt"> 15154 </text>
<line x1="500.000000" y1="19.200000" x2="500.000000" y2="21.200000"                      style="stroke:rgb(0,0,0);stroke-width:0.5"/>
<text x="500.000000" y="27.200000" style="font-size:6pt"> 18942 </text>
<line x1="600.000000" y1="19.200000" x2="600.000000" y2="21.200000"                      style="stroke:rgb(0,0,0);stroke-width:0.5"/>
<text x="600.000000" y="27.200000" style="font-size:6pt"> 22730 </text>
<line x1="700.000000" y1="19.200000" x2="700.000000" y2="21.200000"                      style="stroke:rgb(0,0,0);stroke-width:0.5"/>
<text x="700.000000" y="27.200000" style="font-size:6pt"> 26519 </text>
<line x1="800.000000" y1="19.200000" x2="800.000000" y2="21.200000"                      style="stroke:rgb(0,0,0);stroke-width:0.5"/>
<text x="800.000000" y="27.200000" style="font-size:6pt"> 30307 </text>
<line x1="900.000000" y1="19.200000" x2="900.000000" y2="21.200000"                      style="stroke:rgb(0,0,0);stroke-width:0.5"/>
<text x="900.000000" y="27.200000" style="font-size:6pt"> 34096 </text>
<line x1="1000.000000" y1="19.200000" x2="1000.000000" y2="21.200000"                      style="stroke:rgb(0,0,0);stroke-width:0.5"/>
<text x="1000.000000" y="27.200000" style="font-size:6pt"> 37884 </text>
</svg>
